Coordinates
version=1
nRows=42
nColumns=38
inDegrees=no

Units are S.I. units (second, meters, Newtons, ...)
If the header above contains a line with 'inDegrees', this indicates whether rotational values are in degrees (yes) or radians (no).

endheader
time	pelvis_tilt	pelvis_list	pelvis_rotation	pelvis_tx	pelvis_ty	pelvis_tz	hip_flexion_r	hip_adduction_r	hip_rotation_r	knee_angle_r	ankle_angle_r	subtalar_angle_r	mtp_angle_r	hip_flexion_l	hip_adduction_l	hip_rotation_l	knee_angle_l	ankle_angle_l	subtalar_angle_l	mtp_angle_l	lumbar_extension	lumbar_bending	lumbar_rotation	arm_flex_r	arm_add_r	arm_rot_r	elbow_flex_r	pro_sup_r	wrist_flex_r	wrist_dev_r	arm_flex_l	arm_add_l	arm_rot_l	elbow_flex_l	pro_sup_l	wrist_flex_l	wrist_dev_l
10	0.263656	1.07849	1.48642	0.659487	0.286204	0.822341	1.33645	-0.237969	-0.160316	1.35546	-0.0656192	0	0	1.34383	-0.549266	-0.19551	1.3793	-0.0847112	0	0	-0.553379	-0.0604049	0.0824496	1.01332	-0.577849	0.45418	1.04216	0.54783	0	0	1.09969	-0.349435	0.381057	1.02624	0.795785	0	0
10.01	0.261073	1.07296	1.48782	0.65987	0.286176	0.818774	1.34923	-0.238123	-0.157071	1.36489	-0.0633858	0	0	1.35654	-0.551217	-0.192027	1.38879	-0.0822483	0	0	-0.550808	-0.0631617	0.082204	1.01314	-0.576381	0.451484	1.04303	0.551616	0	0	1.10065	-0.350002	0.379536	1.02759	0.797131	0	0
10.02	0.259166	1.06817	1.48885	0.660213	0.286157	0.81537	1.36096	-0.238278	-0.154161	1.37418	-0.0614737	0	0	1.36849	-0.553046	-0.188148	1.3979	-0.080196	0	0	-0.548801	-0.0654128	0.0821495	1.01318	-0.57538	0.44919	1.0439	0.55377	0	0	1.10189	-0.350379	0.378645	1.02846	0.797628	0	0
10.03	0.257468	1.06322	1.48987	0.660535	0.286113	0.812031	1.37275	-0.238407	-0.151301	1.38341	-0.0594244	0	0	1.38066	-0.554584	-0.183838	1.40662	-0.078296	0	0	-0.546475	-0.0674137	0.0821754	1.01295	-0.574635	0.447039	1.04504	0.555683	0	0	1.10298	-0.350476	0.377652	1.02925	0.798449	0	0
10.04	0.256178	1.05845	1.49055	0.660849	0.286068	0.808822	1.384	-0.238519	-0.14854	1.39199	-0.0576006	0	0	1.3927	-0.556037	-0.17917	1.41516	-0.07683	0	0	-0.544293	-0.0691533	0.0822729	1.01258	-0.574275	0.444431	1.04649	0.557817	0	0	1.10395	-0.350713	0.376805	1.03019	0.799708	0	0
10.05	0.255327	1.05401	1.49079	0.661162	0.286059	0.805777	1.39444	-0.238613	-0.14607	1.39986	-0.0560171	0	0	1.40434	-0.557655	-0.174418	1.4236	-0.0757092	0	0	-0.542431	-0.0706037	0.0824853	1.01211	-0.573875	0.441641	1.0482	0.560529	0	0	1.10476	-0.351088	0.375994	1.03126	0.801089	0	0
10.06	0.25501	1.04984	1.49047	0.661463	0.286054	0.802889	1.404	-0.238286	-0.143976	1.40717	-0.0542599	0	0	1.41552	-0.559467	-0.169609	1.4317	-0.0744727	0	0	-0.540818	-0.0717002	0.0827816	1.01164	-0.573249	0.438601	1.04991	0.562751	0	0	1.10543	-0.351534	0.375153	1.03241	0.802093	0	0
10.07	0.255381	1.04594	1.4896	0.661722	0.286041	0.800131	1.41282	-0.237822	-0.142377	1.41416	-0.0522882	0	0	1.42607	-0.561435	-0.164766	1.43922	-0.0727534	0	0	-0.539307	-0.072318	0.0831253	1.01153	-0.572499	0.436708	1.05129	0.56575	0	0	1.1059	-0.351794	0.374012	1.03335	0.803161	0	0
10.08	0.256175	1.0423	1.48847	0.661918	0.286018	0.797504	1.42101	-0.237386	-0.141146	1.42082	-0.0502497	0	0	1.43594	-0.563243	-0.160203	1.44605	-0.071008	0	0	-0.538026	-0.0724362	0.0834042	1.01163	-0.571811	0.434968	1.05268	0.568034	0	0	1.10626	-0.352169	0.372925	1.03435	0.80415	0	0
10.09	0.25714	1.03884	1.48743	0.662042	0.285962	0.795034	1.42869	-0.237196	-0.140091	1.42696	-0.0483531	0	0	1.44523	-0.564597	-0.156033	1.45222	-0.0695142	0	0	-0.536909	-0.0721905	0.0835202	1.01197	-0.571374	0.432596	1.05371	0.569124	0	0	1.10653	-0.35241	0.371656	1.03531	0.805076	0	0
10.1	0.257962	1.03543	1.48671	0.662129	0.285867	0.792702	1.43607	-0.237151	-0.139015	1.43263	-0.0465876	0	0	1.45414	-0.565606	-0.152335	1.45797	-0.0683278	0	0	-0.535756	-0.0719472	0.0835419	1.01251	-0.571105	0.431229	1.0544	0.571534	0	0	1.10698	-0.352508	0.370828	1.03602	0.80539	0	0
10.11	0.258778	1.03182	1.48624	0.66222	0.285778	0.790505	1.4433	-0.237156	-0.138168	1.43786	-0.0448785	0	0	1.4627	-0.566618	-0.149026	1.46323	-0.0670561	0	0	-0.534387	-0.0717244	0.0834576	1.01253	-0.570659	0.42932	1.05518	0.573883	0	0	1.10736	-0.35245	0.370004	1.03682	0.805817	0	0
10.12	0.259246	1.02812	1.48612	0.662311	0.285643	0.788438	1.45052	-0.236991	-0.137077	1.44276	-0.0431464	0	0	1.47081	-0.567513	-0.146124	1.46798	-0.0656857	0	0	-0.532912	-0.0716348	0.0833282	1.01237	-0.570152	0.42687	1.05594	0.575114	0	0	1.10764	-0.351863	0.368284	1.03759	0.806822	0	0
10.13	0.259495	1.02508	1.48624	0.662384	0.285488	0.78657	1.45693	-0.236877	-0.135919	1.44743	-0.0417321	0	0	1.47802	-0.568256	-0.14356	1.47251	-0.0646845	0	0	-0.532163	-0.0716303	0.083079	1.01275	-0.56987	0.425184	1.05645	0.576054	0	0	1.10841	-0.351485	0.367288	1.03813	0.808679	0	0
10.14	0.259454	1.02189	1.48667	0.662462	0.285323	0.784775	1.4634	-0.236752	-0.134361	1.45162	-0.0402999	0	0	1.48542	-0.568839	-0.141235	1.47687	-0.0640595	0	0	-0.531106	-0.0717823	0.0827616	1.0129	-0.569747	0.424217	1.05716	0.578351	0	0	1.10915	-0.351174	0.36654	1.03857	0.810705	0	0
10.15	0.259025	1.01741	1.48757	0.66256	0.285134	0.782913	1.47102	-0.236552	-0.132507	1.45523	-0.0376147	0	0	1.49403	-0.569249	-0.13901	1.48088	-0.0637944	0	0	-0.528427	-0.0720974	0.0821736	1.01083	-0.567974	0.418668	1.05806	0.587165	0	0	1.10893	-0.350616	0.364522	1.03941	0.813218	0	0
10.16	0.259563	1.01549	1.48761	0.662613	0.285031	0.78143	1.47537	-0.236565	-0.131562	1.45856	-0.0368914	0	0	1.49969	-0.570118	-0.136827	1.48479	-0.0637332	0	0	-0.528639	-0.0718424	0.0815579	1.01154	-0.56804	0.418163	1.05868	0.584461	0	0	1.10966	-0.350367	0.363358	1.03976	0.813398	0	0
10.17	0.259899	1.01342	1.48784	0.662641	0.284941	0.779985	1.47988	-0.236878	-0.130621	1.4619	-0.035724	0	0	1.50507	-0.570858	-0.13491	1.48836	-0.0633657	0	0	-0.528347	-0.0716331	0.0808111	1.01188	-0.567846	0.417228	1.05894	0.584525	0	0	1.11022	-0.350172	0.362508	1.03986	0.81389	0	0
10.18	0.26035	1.01154	1.48811	0.662596	0.28487	0.778612	1.4842	-0.2378	-0.12991	1.46527	-0.0348258	0	0	1.51006	-0.571111	-0.133017	1.49166	-0.0627725	0	0	-0.52787	-0.0712757	0.0798521	1.01229	-0.567004	0.41628	1.0582	0.584762	0	0	1.11046	-0.349937	0.361562	1.03982	0.814313	0	0
10.19	0.260967	1.00975	1.48821	0.662518	0.284819	0.777343	1.48813	-0.238625	-0.129649	1.46853	-0.0338874	0	0	1.51464	-0.571132	-0.131247	1.4946	-0.0618293	0	0	-0.527334	-0.0707493	0.0789741	1.01292	-0.566092	0.41648	1.05704	0.586193	0	0	1.1104	-0.34981	0.36056	1.03987	0.814703	0	0
10.2	0.261621	1.00803	1.48831	0.662389	0.284754	0.776184	1.4917	-0.23934	-0.129494	1.47155	-0.032784	0	0	1.51883	-0.570744	-0.129502	1.49722	-0.06054	0	0	-0.526908	-0.0700503	0.0781031	1.0138	-0.565599	0.417807	1.05601	0.589931	0	0	1.11018	-0.349722	0.359513	1.04011	0.815234	0	0
10.21	0.262269	1.0065	1.48842	0.662219	0.28467	0.775138	1.49495	-0.24006	-0.129299	1.47434	-0.0318567	0	0	1.52255	-0.57011	-0.127827	1.49969	-0.0591817	0	0	-0.526635	-0.069315	0.0772915	1.01453	-0.565229	0.41801	1.05484	0.592573	0	0	1.1101	-0.349506	0.358664	1.04016	0.816142	0	0
10.22	0.262558	1.00502	1.48867	0.662067	0.284584	0.774182	1.49812	-0.24047	-0.128823	1.47683	-0.0310956	0	0	1.52592	-0.569625	-0.126442	1.50212	-0.0579758	0	0	-0.52639	-0.0688586	0.076718	1.01498	-0.564682	0.417485	1.05363	0.593935	0	0	1.11037	-0.34913	0.358217	1.03984	0.81713	0	0
10.23	0.262501	1.00322	1.48911	0.661938	0.284467	0.773263	1.50162	-0.240602	-0.128023	1.47896	-0.0303522	0	0	1.5296	-0.569128	-0.125097	1.50453	-0.0567304	0	0	-0.525757	-0.0685411	0.076346	1.01512	-0.563816	0.416527	1.05262	0.594005	0	0	1.11057	-0.348447	0.357683	1.03939	0.818502	0	0
10.24	0.262169	1.00093	1.48963	0.661826	0.284341	0.772365	1.50551	-0.240511	-0.12699	1.48071	-0.0294864	0	0	1.53366	-0.568663	-0.123846	1.50674	-0.0553868	0	0	-0.52459	-0.0683935	0.076095	1.01501	-0.562877	0.415061	1.05155	0.593358	0	0	1.11036	-0.347523	0.356512	1.03926	0.820536	0	0
10.25	0.261694	0.998705	1.49	0.661744	0.284233	0.771522	1.50926	-0.240256	-0.125847	1.48228	-0.0288816	0	0	1.53755	-0.568546	-0.122642	1.50871	-0.0545595	0	0	-0.523419	-0.0685296	0.0759007	1.0152	-0.562068	0.413876	1.05004	0.593389	0	0	1.11033	-0.347154	0.356126	1.03929	0.822377	0	0
10.26	0.261046	0.99693	1.49037	0.661652	0.284161	0.770747	1.51261	-0.240235	-0.124715	1.48393	-0.028572	0	0	1.54099	-0.568622	-0.1215	1.51063	-0.0541586	0	0	-0.522625	-0.0687147	0.0758251	1.01555	-0.561592	0.413438	1.04871	0.593875	0	0	1.11054	-0.346955	0.356231	1.03893	0.82334	0	0
10.27	0.260421	0.995842	1.49062	0.661518	0.284141	0.770067	1.51508	-0.240523	-0.123918	1.48549	-0.0284567	0	0	1.54368	-0.568787	-0.120335	1.51258	-0.0540353	0	0	-0.522456	-0.068781	0.075866	1.01602	-0.561309	0.413737	1.04764	0.594351	0	0	1.11074	-0.346523	0.356089	1.03834	0.823815	0	0
10.28	0.260072	0.99487	1.49055	0.66137	0.284137	0.769402	1.51719	-0.240917	-0.123667	1.48691	-0.0283222	0	0	1.54626	-0.56907	-0.119177	1.51446	-0.0539751	0	0	-0.522246	-0.0685408	0.0760306	1.01648	-0.561145	0.41472	1.0469	0.595074	0	0	1.1107	-0.346017	0.355705	1.03765	0.824207	0	0
10.29	0.260046	0.993769	1.49014	0.661194	0.284117	0.768737	1.5192	-0.241451	-0.124002	1.48819	-0.0281448	0	0	1.549	-0.56947	-0.118091	1.51623	-0.0539308	0	0	-0.521761	-0.0679716	0.0762099	1.01701	-0.561057	0.415928	1.0462	0.595862	0	0	1.11054	-0.345664	0.355426	1.03683	0.825026	0	0
10.3	0.260074	0.992385	1.48965	0.660993	0.284069	0.768081	1.5214	-0.242144	-0.124609	1.48938	-0.0279543	0	0	1.55179	-0.569784	-0.117117	1.51782	-0.0537412	0	0	-0.520955	-0.0673612	0.0763871	1.01771	-0.561267	0.417577	1.04527	0.598303	0	0	1.11031	-0.345134	0.3546	1.03595	0.825862	0	0
10.31	0.2599	0.990883	1.48934	0.660763	0.283994	0.76747	1.52371	-0.243023	-0.125234	1.49049	-0.0278475	0	0	1.55432	-0.569795	-0.116393	1.51924	-0.0532272	0	0	-0.520055	-0.0668001	0.0765037	1.01839	-0.561178	0.419055	1.04442	0.6009	0	0	1.11005	-0.344458	0.353288	1.03497	0.826533	0	0
10.32	0.259219	0.989203	1.48939	0.660519	0.283888	0.766899	1.52622	-0.24376	-0.125413	1.49141	-0.0278243	0	0	1.55663	-0.569544	-0.116063	1.52046	-0.05245	0	0	-0.519178	-0.0663805	0.076446	1.01895	-0.561262	0.419748	1.04431	0.602033	0	0	1.10967	-0.343899	0.351467	1.03423	0.827262	0	0
10.33	0.257879	0.987127	1.48979	0.660293	0.283762	0.766325	1.52934	-0.244171	-0.124944	1.49225	-0.0279594	0	0	1.55914	-0.569158	-0.115896	1.52166	-0.0514048	0	0	-0.51805	-0.0665106	0.0762911	1.01947	-0.561232	0.420864	1.04448	0.603399	0	0	1.10937	-0.343472	0.349526	1.03367	0.828222	0	0
10.34	0.256152	0.984938	1.49036	0.660103	0.283607	0.765786	1.53267	-0.244135	-0.123875	1.49292	-0.0281601	0	0	1.56168	-0.568734	-0.115806	1.52282	-0.0503293	0	0	-0.516825	-0.0669901	0.0761026	1.01992	-0.560826	0.421345	1.0445	0.603668	0	0	1.10926	-0.343131	0.347506	1.03318	0.829149	0	0
10.35	0.254321	0.982859	1.49102	0.659915	0.283411	0.765291	1.53591	-0.243893	-0.122637	1.49345	-0.0283586	0	0	1.56409	-0.568184	-0.115717	1.52391	-0.0492977	0	0	-0.515723	-0.0675389	0.0759365	1.02074	-0.5603	0.422413	1.0443	0.603782	0	0	1.10949	-0.342782	0.345643	1.03248	0.830121	0	0
10.36	0.252528	0.980851	1.49163	0.659724	0.283187	0.764821	1.53908	-0.243559	-0.121322	1.49388	-0.0285597	0	0	1.56647	-0.567503	-0.115431	1.52484	-0.0483413	0	0	-0.514734	-0.0679421	0.0756522	1.02185	-0.559759	0.422896	1.04416	0.602602	0	0	1.10995	-0.342756	0.344265	1.03142	0.831216	0	0
10.37	0.25092	0.978942	1.49194	0.659564	0.282977	0.764358	1.5421	-0.242998	-0.12021	1.49432	-0.0287407	0	0	1.56891	-0.566995	-0.114891	1.5257	-0.047573	0	0	-0.513906	-0.0683363	0.0755542	1.02342	-0.559451	0.424673	1.04386	0.602661	0	0	1.11057	-0.34265	0.342893	1.03012	0.831982	0	0
10.38	0.249534	0.97722	1.49188	0.659386	0.28279	0.763896	1.54488	-0.242382	-0.11928	1.49483	-0.0288944	0	0	1.5714	-0.566662	-0.114085	1.52666	-0.0470034	0	0	-0.513273	-0.0686094	0.0756661	1.0254	-0.558991	0.427316	1.04328	0.603247	0	0	1.1113	-0.342481	0.34151	1.02863	0.832588	0	0
10.39	0.248085	0.975851	1.49179	0.659191	0.282632	0.763472	1.54719	-0.241767	-0.118383	1.49521	-0.0289289	0	0	1.5733	-0.566579	-0.113432	1.52768	-0.0464831	0	0	-0.513038	-0.0688386	0.0758173	1.0275	-0.558856	0.428703	1.04274	0.603496	0	0	1.11206	-0.342341	0.339996	1.02728	0.833062	0	0
10.4	0.246522	0.974315	1.49186	0.659005	0.282481	0.763045	1.54957	-0.241189	-0.11756	1.49541	-0.028888	0	0	1.57511	-0.56646	-0.112949	1.52854	-0.0457756	0	0	-0.51265	-0.0690423	0.0759908	1.02959	-0.558556	0.430208	1.04217	0.603817	0	0	1.11271	-0.341967	0.338328	1.02589	0.833759	0	0
10.41	0.245058	0.972655	1.49188	0.658832	0.282324	0.762601	1.55201	-0.240425	-0.11696	1.49558	-0.0287261	0	0	1.57712	-0.566265	-0.112463	1.52942	-0.044936	0	0	-0.512028	-0.0692366	0.0762613	1.03185	-0.558148	0.432667	1.04132	0.60489	0	0	1.11336	-0.341446	0.336709	1.02441	0.83419	0	0
